<?xml version="1.0" encoding="UTF-8" standalone="no"?>
<svg
   version="1.1"
   id="Layer_1"
   x="0px"
   y="0px"
   width="100%"
   viewBox="0 0 1024 1024"
   enable-background="new 0 0 1024 1024"
   sodipodi:docname="raw_icon.svg"
   inkscape:export-filename="icon_32.png"
   inkscape:export-xdpi="3"
   inkscape:export-ydpi="3"
   inkscape:version="1.4.2 (ebf0e940d0, 2025-05-08)"
   xmlns:inkscape="http://www.inkscape.org/namespaces/inkscape"
   xmlns:sodipodi="http://sodipodi.sourceforge.net/DTD/sodipodi-0.dtd"
   xmlns="http://www.w3.org/2000/svg"
   xmlns:svg="http://www.w3.org/2000/svg"
   xmlns:bx="https://boxy-svg.com">
  <sodipodi:namedview
     id="namedview10"
     pagecolor="#ffffff"
     bordercolor="#000000"
     borderopacity="0.25"
     inkscape:showpageshadow="2"
     inkscape:pageopacity="0.0"
     inkscape:pagecheckerboard="0"
     inkscape:deskcolor="#d1d1d1"
     inkscape:zoom="0.43115234"
     inkscape:cx="517.21857"
     inkscape:cy="140.32163"
     inkscape:window-width="1920"
     inkscape:window-height="1134"
     inkscape:window-x="0"
     inkscape:window-y="0"
     inkscape:window-maximized="1"
     inkscape:current-layer="Layer_1" />
  <defs
     id="defs1">
    <bx:export>
      <bx:file
         format="png"
         path="icon.png" />
      <bx:file
         format="png"
         href="#object-0"
         path="無題.png" />
    </bx:export>
  </defs>
  <g
     transform="matrix(1.5037403,0,0,1.5037403,-272.19603,-221.30696)"
     id="object-0">
    <g
       id="g5">
      <path
         fill="#e58c69"
         opacity="1"
         stroke="none"
         d="m 689.79883,638.87109 c -1.21503,26.56891 -10.68878,49.88617 -28.08661,69.88361 -16.80719,19.31854 -37.93958,31.58807 -63.69458,37.32642 -3.44922,0.24133 -6.0921,0.64581 -8.73529,0.64862 -43.39478,0.0463 -86.78964,0.0802 -130.18433,0.021 -10.28775,-0.014 -20.57504,-0.37842 -30.86255,-0.58172 -22.84387,-5.08161 -42.69021,-15.73371 -59.03299,-32.49805 -19.77349,-20.28351 -30.81533,-44.66821 -32.8341,-73.68976 0.42795,-1.40362 0.60916,-2.05701 0.60919,-2.71045 0.003,-71.62909 -0.003,-143.25818 -0.0514,-214.88724 -9.5e-4,-1.42599 -0.49924,-2.85165 -0.76547,-4.27746 0.59741,-17.03595 5.34612,-32.95233 13.32104,-47.90247 10.25201,-19.2189 24.95902,-34.185 44.33816,-44.89331 0.68641,-0.0853 0.92807,-0.25558 1.16978,-0.4259 0,0 0.008,0.0842 0.27441,0.0496 0.75781,-0.36237 1.24881,-0.69013 1.73984,-1.01785 0,0 -0.0176,0.0699 0.33081,0.0503 10.08871,-3.30566 19.83774,-6.56665 29.55194,-9.92831 0.73312,-0.25373 1.21817,-1.22449 2.30615,-1.87177 42.12772,-0.0699 83.76776,-0.13818 125.40784,-0.18558 14.47137,-0.0165 28.94275,0.0189 43.41412,0.0305 15.8714,3.43607 30.68433,9.27213 43.9397,18.86722 26.09039,18.88592 41.14605,44.56149 46.83331,75.95694 0.90943,5.02048 0.84583,10.21716 0.88519,16.08868 -0.45373,1.74216 -0.65411,2.72797 -0.65435,3.71384 -0.0173,69.31363 -0.0236,138.62729 0.012,207.94089 7.3e-4,1.43085 0.50104,2.86151 0.76825,4.29223 M 607.19958,425.05453 c -11.39141,-4.22143 -21.97253,-1.35031 -29.75817,8.54145 -21.92817,27.8602 -43.71302,55.83322 -65.58191,83.7402 -8.07859,10.30908 -16.23432,20.55774 -24.74814,31.33155 -6.32669,-7.57251 -12.2059,-14.73505 -18.22284,-21.77991 -7.78052,-9.10968 -15.22955,-18.56238 -23.63852,-27.05857 -8.39218,-8.47924 -22.71118,-8.23111 -30.9317,-0.54766 -8.46192,7.90915 -9.64853,22.25497 -2.08066,31.33779 18.32233,21.99018 36.73587,43.90809 55.38882,65.61774 12.47977,14.5249 30.51038,13.76398 42.36667,-1.2326 26.1171,-33.03424 52.3187,-66.00159 78.4205,-99.04779 9.59058,-12.14209 19.63691,-23.99543 28.30707,-36.77317 8.67462,-12.78415 4.63739,-25.98498 -9.52112,-34.12903 z"
         id="path1" />
      <path
         fill="#5b5b59"
         opacity="1"
         stroke="none"
         d="m 598.047,311.54275 c -14.5036,0.45685 -28.97498,0.42151 -43.44635,0.43799 -41.64008,0.0474 -83.28012,0.1157 -125.4599,0.14194 -0.53971,-0.0339 -0.68128,-0.004 -0.68128,-0.004 -0.0645,-9.95258 -0.33655,-19.90961 -0.12466,-29.8563 0.15594,-7.32129 3.43078,-10.07303 11.08441,-10.08175 24.24033,-0.0276 48.48074,-0.0142 73.64133,-0.0804 4.91497,-0.0912 8.9096,-0.11868 12.90429,-0.14612 19.74683,0.0765 39.49359,0.17304 59.24048,0.22129 10.13385,0.0248 12.94562,2.79388 12.94122,12.99923 -0.004,8.63315 -0.0435,17.26627 -0.0995,26.36792 z"
         id="path2" />
      <path
         fill="#5b5b59"
         opacity="1"
         stroke="none"
         d="m 428.22406,746.62109 c 10.29892,-0.24878 20.58621,0.11567 30.87396,0.12964 43.39469,0.0592 86.78955,0.0253 130.18433,-0.021 2.64319,-0.003 5.28607,-0.40729 8.34778,-0.57599 0.43408,9.53515 0.45007,19.02142 0.46472,28.50775 0.013,8.44604 -2.89758,11.3905 -11.28131,11.39032 -45.76905,-0.001 -91.53803,-0.006 -137.30704,-0.008 -3.66153,-1.8e-4 -7.3234,0.0364 -10.98453,-0.002 -6.92166,-0.0728 -10.09744,-3.00421 -10.23385,-10.01257 -0.18778,-9.64869 -0.0651,-19.30329 -0.0641,-29.40754 z"
         id="path3" />
      <path
         fill="#e58c69"
         opacity="1"
         stroke="none"
         d="m 525.92444,271.49103 c -3.95429,0.49072 -7.94892,0.51816 -12.39929,0.51257 -0.81226,-4.14606 -1.41639,-8.25497 -1.48389,-12.37271 -0.34113,-20.81944 -10.06168,-31.04662 -30.91126,-33.87238 -12.2767,-1.66386 -24.67645,-3.77262 -36.43835,-7.5131 -12.52612,-3.98352 -22.63886,-12.1361 -27.4874,-25.05809 -1.42291,-3.7923 -1.97262,-8.0857 -2.03652,-12.16332 -0.0582,-3.71342 1.89184,-6.78155 6.24801,-7.02859 4.18863,-0.23755 5.80145,2.91455 6.62039,6.06373 5.10117,19.61649 16.88446,29.23201 37.83817,30.95966 8.10382,0.66818 16.26666,1.38724 24.21765,2.99689 23.35483,4.72807 34.80136,18.68392 35.51675,42.53347 0.14472,4.82459 0.18622,9.65229 0.31574,14.94187 z"
         id="path4" />
      <path
         fill="#5b5b59"
         opacity="1"
         stroke="none"
         d="m 607.53918,425.22903 c 13.81891,7.96955 17.85614,21.17038 9.18152,33.95453 -8.67016,12.77774 -18.71649,24.63108 -28.30707,36.77317 -26.1018,33.0462 -52.3034,66.01355 -78.4205,99.04779 -11.85629,14.99658 -29.8869,15.7575 -42.36667,1.2326 -18.65295,-21.70965 -37.06649,-43.62756 -55.38882,-65.61774 -7.56787,-9.08282 -6.38126,-23.42864 2.08066,-31.33779 8.22052,-7.68345 22.53952,-7.93158 30.9317,0.54766 8.40897,8.49619 15.858,17.94889 23.63852,27.05857 6.01694,7.04486 11.89615,14.2074 18.22284,21.77991 8.51382,-10.77381 16.66955,-21.02247 24.74814,-31.33155 21.86889,-27.90698 43.65374,-55.88 65.58191,-83.7402 7.78564,-9.89176 18.36676,-12.76288 30.09777,-8.36695 z"
         id="path5" />
    </g>
    <path
       fill="#de6732"
       opacity="1"
       stroke="none"
       d="m 336.11871,418.56574 c 0.3082,0.96612 0.80649,2.39178 0.80744,3.81777 0.0479,71.62906 0.0542,143.25815 0.0514,214.88724 -3e-5,0.65344 -0.18124,1.30683 -0.52634,2.27576 -0.35852,-26.66223 -0.5328,-53.63977 -0.56414,-80.61749 -0.0511,-43.97217 -0.0122,-87.94443 0.002,-131.91663 8.8e-4,-2.66235 0.12201,-5.32468 0.22918,-8.44665 z"
       id="path6" />
    <path
       fill="#de6732"
       opacity="1"
       stroke="none"
       d="m 689.85144,638.41412 c -0.31982,-0.97375 -0.82013,-2.40441 -0.82086,-3.83526 -0.0356,-69.3136 -0.0293,-138.62726 -0.012,-207.94089 2.4e-4,-0.98587 0.20062,-1.97168 0.58575,-3.25662 0.31873,31.3479 0.39123,62.9949 0.39142,94.6419 3e-4,39.97797 -0.0584,79.95594 -0.14435,120.39087 z"
       id="path7" />
    <path
       fill="#de6732"
       opacity="1"
       stroke="none"
       d="m 428.15832,312.40448 c 0.30115,-0.28558 0.44272,-0.31567 0.49479,-0.272 -0.54828,0.68112 -1.03333,1.65188 -1.76645,1.90561 -9.7142,3.36166 -19.46323,6.62265 -29.58508,9.91415 8.98315,-6.35263 19.70031,-8.99701 30.85674,-11.54776 z"
       id="path8" />
    <path
       fill="#de6732"
       opacity="1"
       stroke="none"
       d="m 396.68182,323.88721 c -0.16894,0.35659 -0.65994,0.68435 -1.46002,1.0473 0.17328,-0.33527 0.65564,-0.70572 1.46002,-1.0473 z"
       id="path9" />
    <path
       fill="#de6732"
       opacity="1"
       stroke="none"
       d="m 394.74353,324.88098 c 0.004,0.17371 -0.23724,0.34403 -0.58252,0.36597 -0.10358,-0.14844 0.3364,-0.36932 0.58252,-0.36597 z"
       id="path10" />
  </g>
</svg>
